<svg width="170" height="67" viewBox="0 0 170 67" fill="none" xmlns="http://www.w3.org/2000/svg">
<rect width="170" height="67" fill="white"/>
<path d="M14.8438 52H8.11719V18.3906H14.8438V31.8438H28.2734V18.3906H35V52H28.2734V38.5703H14.8438V52ZM50.1875 45.8594C50.4375 45.9375 50.6875 45.9922 50.9375 46.0234C51.1875 46.0391 51.4375 46.0469 51.6875 46.0469C52.3125 46.0469 52.9141 45.9609 53.4922 45.7891C54.0703 45.6172 54.6094 45.375 55.1094 45.0625C55.625 44.7344 56.0781 44.3438 56.4688 43.8906C56.875 43.4219 57.2031 42.9062 57.4531 42.3438L62.1406 47.0547C61.5469 47.8984 60.8594 48.6562 60.0781 49.3281C59.3125 50 58.4766 50.5703 57.5703 51.0391C56.6797 51.5078 55.7344 51.8594 54.7344 52.0938C53.75 52.3438 52.7344 52.4688 51.6875 52.4688C49.9219 52.4688 48.2578 52.1406 46.6953 51.4844C45.1484 50.8281 43.7891 49.9141 42.6172 48.7422C41.4609 47.5703 40.5469 46.1797 39.875 44.5703C39.2031 42.9453 38.8672 41.1641 38.8672 39.2266C38.8672 37.2422 39.2031 35.4297 39.875 33.7891C40.5469 32.1484 41.4609 30.75 42.6172 29.5938C43.7891 28.4375 45.1484 27.5391 46.6953 26.8984C48.2578 26.2578 49.9219 25.9375 51.6875 25.9375C52.7344 25.9375 53.7578 26.0625 54.7578 26.3125C55.7578 26.5625 56.7031 26.9219 57.5938 27.3906C58.5 27.8594 59.3438 28.4375 60.125 29.125C60.9062 29.7969 61.5938 30.5547 62.1875 31.3984L50.1875 45.8594ZM53.4688 32.6641C53.1719 32.5547 52.875 32.4844 52.5781 32.4531C52.2969 32.4219 52 32.4062 51.6875 32.4062C50.8125 32.4062 49.9844 32.5703 49.2031 32.8984C48.4375 33.2109 47.7656 33.6641 47.1875 34.2578C46.625 34.8516 46.1797 35.5703 45.8516 36.4141C45.5234 37.2422 45.3594 38.1797 45.3594 39.2266C45.3594 39.4609 45.3672 39.7266 45.3828 40.0234C45.4141 40.3203 45.4531 40.625 45.5 40.9375C45.5625 41.2344 45.6328 41.5234 45.7109 41.8047C45.7891 42.0859 45.8906 42.3359 46.0156 42.5547L53.4688 32.6641ZM71.8672 52H65.4219V16.9141H71.8672V52ZM83.2109 52H76.7656V16.9141H83.2109V52ZM112.367 39.2266C112.367 41.1016 112.031 42.8516 111.359 44.4766C110.688 46.0859 109.773 47.4844 108.617 48.6719C107.461 49.8438 106.102 50.7734 104.539 51.4609C102.992 52.1328 101.328 52.4688 99.5469 52.4688C97.7812 52.4688 96.1172 52.1328 94.5547 51.4609C93.0078 50.7734 91.6484 49.8438 90.4766 48.6719C89.3203 47.4844 88.4062 46.0859 87.7344 44.4766C87.0625 42.8516 86.7266 41.1016 86.7266 39.2266C86.7266 37.3203 87.0625 35.5547 87.7344 33.9297C88.4062 32.3047 89.3203 30.9062 90.4766 29.7344C91.6484 28.5469 93.0078 27.6172 94.5547 26.9453C96.1172 26.2734 97.7812 25.9375 99.5469 25.9375C101.328 25.9375 102.992 26.2578 104.539 26.8984C106.102 27.5234 107.461 28.4219 108.617 29.5938C109.773 30.75 110.688 32.1484 111.359 33.7891C112.031 35.4141 112.367 37.2266 112.367 39.2266ZM105.922 39.2266C105.922 38.1953 105.75 37.2656 105.406 36.4375C105.078 35.5938 104.625 34.875 104.047 34.2812C103.469 33.6719 102.789 33.2109 102.008 32.8984C101.242 32.5703 100.422 32.4062 99.5469 32.4062C98.6719 32.4062 97.8438 32.5703 97.0625 32.8984C96.2969 33.2109 95.625 33.6719 95.0469 34.2812C94.4844 34.875 94.0391 35.5938 93.7109 36.4375C93.3828 37.2656 93.2188 38.1953 93.2188 39.2266C93.2188 40.1953 93.3828 41.0938 93.7109 41.9219C94.0391 42.75 94.4844 43.4688 95.0469 44.0781C95.625 44.6875 96.2969 45.1719 97.0625 45.5312C97.8438 45.875 98.6719 46.0469 99.5469 46.0469C100.422 46.0469 101.242 45.8828 102.008 45.5547C102.789 45.2266 103.469 44.7656 104.047 44.1719C104.625 43.5781 105.078 42.8594 105.406 42.0156C105.75 41.1719 105.922 40.2422 105.922 39.2266ZM140.164 39.2266C140.164 41.1016 139.828 42.8516 139.156 44.4766C138.484 46.0859 137.57 47.4844 136.414 48.6719C135.258 49.8438 133.898 50.7734 132.336 51.4609C130.789 52.1328 129.125 52.4688 127.344 52.4688C125.578 52.4688 123.914 52.1328 122.352 51.4609C120.805 50.7734 119.445 49.8438 118.273 48.6719C117.117 47.4844 116.203 46.0859 115.531 44.4766C114.859 42.8516 114.523 41.1016 114.523 39.2266C114.523 37.3203 114.859 35.5547 115.531 33.9297C116.203 32.3047 117.117 30.9062 118.273 29.7344C119.445 28.5469 120.805 27.6172 122.352 26.9453C123.914 26.2734 125.578 25.9375 127.344 25.9375C129.125 25.9375 130.789 26.2578 132.336 26.8984C133.898 27.5234 135.258 28.4219 136.414 29.5938C137.57 30.75 138.484 32.1484 139.156 33.7891C139.828 35.4141 140.164 37.2266 140.164 39.2266ZM133.719 39.2266C133.719 38.1953 133.547 37.2656 133.203 36.4375C132.875 35.5938 132.422 34.875 131.844 34.2812C131.266 33.6719 130.586 33.2109 129.805 32.8984C129.039 32.5703 128.219 32.4062 127.344 32.4062C126.469 32.4062 125.641 32.5703 124.859 32.8984C124.094 33.2109 123.422 33.6719 122.844 34.2812C122.281 34.875 121.836 35.5938 121.508 36.4375C121.18 37.2656 121.016 38.1953 121.016 39.2266C121.016 40.1953 121.18 41.0938 121.508 41.9219C121.836 42.75 122.281 43.4688 122.844 44.0781C123.422 44.6875 124.094 45.1719 124.859 45.5312C125.641 45.875 126.469 46.0469 127.344 46.0469C128.219 46.0469 129.039 45.8828 129.805 45.5547C130.586 45.2266 131.266 44.7656 131.844 44.1719C132.422 43.5781 132.875 42.8594 133.203 42.0156C133.547 41.1719 133.719 40.2422 133.719 39.2266ZM151.344 20.0781C151.344 20.6719 151.227 21.2266 150.992 21.7422C150.773 22.2578 150.469 22.7109 150.078 23.1016C149.703 23.4766 149.25 23.7812 148.719 24.0156C148.203 24.2344 147.656 24.3438 147.078 24.3438C146.469 24.3438 145.898 24.2344 145.367 24.0156C144.852 23.7812 144.398 23.4766 144.008 23.1016C143.617 22.7109 143.305 22.2578 143.07 21.7422C142.852 21.2266 142.742 20.6719 142.742 20.0781C142.742 19.5 142.852 18.9531 143.07 18.4375C143.305 17.9062 143.617 17.4531 144.008 17.0781C144.398 16.6875 144.852 16.3828 145.367 16.1641C145.898 15.9297 146.469 15.8125 147.078 15.8125C147.656 15.8125 148.203 15.9297 148.719 16.1641C149.25 16.3828 149.703 16.6875 150.078 17.0781C150.469 17.4531 150.773 17.9062 150.992 18.4375C151.227 18.9531 151.344 19.5 151.344 20.0781ZM134.164 61.5625V55.1172L137.703 55.1641C138.562 55.1641 139.359 54.9844 140.094 54.625C140.828 54.2812 141.461 53.8125 141.992 53.2188C142.539 52.6406 142.969 51.9688 143.281 51.2031C143.594 50.4375 143.75 49.6328 143.75 48.7891V26.8984H150.289V48.7891H150.242C150.227 49.9609 150.062 51.0938 149.75 52.1875C149.453 53.2812 149.023 54.2969 148.461 55.2344C147.898 56.1875 147.227 57.0469 146.445 57.8125C145.664 58.5938 144.797 59.2578 143.844 59.8047C142.906 60.3672 141.898 60.7969 140.82 61.0938C139.727 61.4062 138.594 61.5625 137.422 61.5625H134.164ZM162.688 20.0781C162.688 20.6719 162.57 21.2266 162.336 21.7422C162.117 22.2578 161.812 22.7109 161.422 23.1016C161.031 23.4766 160.57 23.7812 160.039 24.0156C159.523 24.2344 158.969 24.3438 158.375 24.3438C157.781 24.3438 157.219 24.2344 156.688 24.0156C156.172 23.7812 155.719 23.4766 155.328 23.1016C154.953 22.7109 154.648 22.2578 154.414 21.7422C154.195 21.2266 154.086 20.6719 154.086 20.0781C154.086 19.5 154.195 18.9531 154.414 18.4375C154.648 17.9062 154.953 17.4531 155.328 17.0781C155.719 16.6875 156.172 16.3828 156.688 16.1641C157.219 15.9297 157.781 15.8125 158.375 15.8125C158.969 15.8125 159.523 15.9297 160.039 16.1641C160.57 16.3828 161.031 16.6875 161.422 17.0781C161.812 17.4531 162.117 17.9062 162.336 18.4375C162.57 18.9531 162.688 19.5 162.688 20.0781ZM161.586 52H155.141V26.8984H161.586V52Z" fill="#FFF500"/>
<path d="M98 29.3825L107 20.8825C111.591 16.9437 114.104 17.1358 118.5 20.8825L129 29.3825" stroke="#FFF500" stroke-width="6"/>
<path d="M156.625 21.5C156.924 21.2342 154.625 20.5 153.625 20C152.625 19.5 153.125 24 153.125 24C154.125 23.1667 155.5 22.5 156.625 21.5Z" fill="white"/>
<path d="M149 21.5C148.701 21.2342 151 20.5 152 20C153 19.5 152.5 24 152.5 24C151.5 23.1667 150.125 22.5 149 21.5Z" fill="white"/>
</svg>
