<svg width="30" height="30" viewBox="0 0 30 30" fill="none" xmlns="http://www.w3.org/2000/svg">
<path d="M10.625 7.5H8.375C10.25 5.875 12.5 5 15 5C15.375 5 15.75 5 16.125 5.125C16.75 5.25 17.375 4.75 17.5 4C17.625 3.375 17.125 2.75 16.375 2.625C15.875 2.5 15.5 2.5 15 2.5C12 2.5 9.125 3.625 6.875 5.5V3.75C6.875 3 6.375 2.5 5.625 2.5C4.875 2.5 4.375 3 4.375 3.75V8.75C4.375 9.5 4.875 10 5.625 10H10.625C11.375 10 11.875 9.5 11.875 8.75C11.875 8 11.375 7.5 10.625 7.5ZM8.75 18.125C8 18.125 7.5 18.625 7.5 19.375V21.625C5.875 19.75 5 17.5 5 15C5 14.625 5 14.25 5.125 13.875C5.25 13.25 4.75 12.625 4 12.5C3.375 12.375 2.75 12.875 2.625 13.625C2.5 14.125 2.5 14.5 2.5 15C2.5 18 3.625 20.875 5.5 23.125H3.75C3 23.125 2.5 23.625 2.5 24.375C2.5 25.125 3 25.625 3.75 25.625H8.75C9.125 25.625 9.5 25.375 9.75 25.125C9.75 25 9.875 24.875 9.875 24.75V24.5V19.375C10 18.625 9.5 18.125 8.75 18.125V18.125ZM26.25 6.875C27 6.875 27.5 6.375 27.5 5.625C27.5 4.875 27 4.375 26.25 4.375H21C20.875 4.375 20.75 4.5 20.625 4.5C20.5 4.625 20.375 4.625 20.375 4.75C20.375 4.875 20.25 5 20.25 5V10.375C20.25 11.125 20.75 11.625 21.5 11.625C22.25 11.625 22.75 11.125 22.75 10.375V8.375C24.375 10.125 25.25 12.5 25.25 15C25.25 15.375 25.25 15.75 25.125 16.125C25 16.75 25.5 17.375 26.25 17.5H26.375C27 17.5 27.5 17 27.625 16.375C27.625 15.875 27.75 15.5 27.75 15C27.75 12 26.625 9.125 24.75 6.875H26.25ZM25.375 20.625L25 20.25C24.875 20.125 24.75 20.125 24.625 20.125H24.5H19.375C18.625 20.125 18.125 20.625 18.125 21.375C18.125 22.125 18.625 22.625 19.375 22.625H21.625C19.875 24.25 17.5 25.125 15 25.125C14.625 25.125 14.25 25.125 13.875 25C13.25 24.875 12.625 25.375 12.5 26.125C12.375 26.875 12.875 27.375 13.625 27.5C14.125 27.5 14.5 27.625 15 27.625C18 27.625 20.875 26.5 23.125 24.625V26.25C23.125 27 23.625 27.5 24.375 27.5C25.125 27.5 25.625 27 25.625 26.25V21.25C25.625 21 25.5 20.75 25.375 20.625V20.625Z" fill="#F8F8F8"/>
</svg>
