<svg width="30" height="30" viewBox="0 0 30 30" fill="none" xmlns="http://www.w3.org/2000/svg">
<path d="M9.375 1.875C8.38044 1.875 7.42661 2.27009 6.72335 2.97335C6.02009 3.67661 5.625 4.63044 5.625 5.625V9.855C6.22125 9.645 6.84937 9.49875 7.5 9.42562V5.625C7.5 5.12772 7.69754 4.65081 8.04917 4.29917C8.40081 3.94754 8.87772 3.75 9.375 3.75H15V8.4375C15 9.18342 15.2963 9.89879 15.8238 10.4262C16.3512 10.9537 17.0666 11.25 17.8125 11.25H22.5V24.375C22.5 24.8723 22.3025 25.3492 21.9508 25.7008C21.5992 26.0525 21.1223 26.25 20.625 26.25H20.4656C20.6794 26.8556 20.6794 27.5194 20.4656 28.125H20.625C21.6196 28.125 22.5734 27.7299 23.2766 27.0266C23.9799 26.3234 24.375 25.3696 24.375 24.375V10.1513C24.3743 9.40558 24.0776 8.69069 23.55 8.16375L18.0881 2.69813C17.8268 2.437 17.5167 2.22991 17.1753 2.08867C16.834 1.94744 16.4682 1.87483 16.0988 1.875H9.375ZM22.1119 9.375H17.8125C17.5639 9.375 17.3254 9.27623 17.1496 9.10041C16.9738 8.9246 16.875 8.68614 16.875 8.4375V4.13813L22.1119 9.375ZM12.3675 23.0681C11.0388 24.0617 9.383 24.5151 7.73343 24.3371C6.08386 24.1591 4.56294 23.3629 3.47677 22.1087C2.39059 20.8545 1.81978 19.2355 1.87922 17.5774C1.93865 15.9193 2.62392 14.3453 3.79712 13.1721C4.97031 11.9989 6.54433 11.3137 8.20241 11.2542C9.86049 11.1948 11.4795 11.7656 12.7337 12.8518C13.9879 13.9379 14.7841 15.4589 14.9621 17.1084C15.1401 18.758 14.6867 20.4138 13.6931 21.7425L18.4744 26.5237C18.6504 26.6995 18.7494 26.9381 18.7496 27.1868C18.7498 27.4356 18.6511 27.6743 18.4753 27.8503C18.2995 28.0264 18.061 28.1253 17.8122 28.1255C17.5634 28.1257 17.3248 28.027 17.1487 27.8513L12.3675 23.07V23.0681ZM13.125 17.8125C13.125 16.5693 12.6311 15.377 11.7521 14.4979C10.873 13.6189 9.6807 13.125 8.4375 13.125C7.1943 13.125 6.00201 13.6189 5.12294 14.4979C4.24386 15.377 3.75 16.5693 3.75 17.8125C3.75 19.0557 4.24386 20.248 5.12294 21.1271C6.00201 22.0061 7.1943 22.5 8.4375 22.5C9.6807 22.5 10.873 22.0061 11.7521 21.1271C12.6311 20.248 13.125 19.0557 13.125 17.8125V17.8125Z" fill="#F8F8F8"/>
</svg>
