<svg width="30" height="30" viewBox="0 0 30 30" fill="none" xmlns="http://www.w3.org/2000/svg">
<g clip-path="url(#clip0_3_7)">
<path fill-rule="evenodd" clip-rule="evenodd" d="M2.8125 5.15625C2.8125 5.03193 2.86189 4.9127 2.94979 4.82479C3.0377 4.73689 3.15693 4.6875 3.28125 4.6875H19.2188C19.3431 4.6875 19.4623 4.73689 19.5502 4.82479C19.6381 4.9127 19.6875 5.03193 19.6875 5.15625V15.4687C19.6875 15.5931 19.6381 15.7123 19.5502 15.8002C19.4623 15.8881 19.3431 15.9375 19.2188 15.9375H12.6563C12.2834 15.9378 11.926 16.0862 11.6625 16.35L6.5625 21.45V17.3437C6.5625 16.9708 6.41434 16.6131 6.15062 16.3494C5.8869 16.0857 5.52921 15.9375 5.15625 15.9375H3.28125C3.15693 15.9375 3.0377 15.8881 2.94979 15.8002C2.86189 15.7123 2.8125 15.5931 2.8125 15.4687V5.15625ZM3.28125 1.875C2.41101 1.875 1.57641 2.2207 0.961056 2.83606C0.345702 3.45141 0 4.28601 0 5.15625L0 15.4687C0 17.28 1.47 18.75 3.28125 18.75H3.75V21.6431C3.75019 22.1833 3.91051 22.7113 4.21071 23.1604C4.5109 23.6095 4.93749 23.9595 5.43656 24.1661C5.93563 24.3728 6.48477 24.4269 7.01457 24.3216C7.54438 24.2163 8.03107 23.9562 8.41312 23.5744L13.2394 18.75H19.2188C20.089 18.75 20.9236 18.4043 21.5389 17.7889C22.1543 17.1736 22.5 16.339 22.5 15.4687V5.15625C22.5 4.28601 22.1543 3.45141 21.5389 2.83606C20.9236 2.2207 20.089 1.875 19.2188 1.875H3.28125ZM27.1875 8.90625C27.1875 8.78193 27.1381 8.6627 27.0502 8.57479C26.9623 8.48689 26.8431 8.4375 26.7188 8.4375H25.7813C25.4083 8.4375 25.0506 8.28934 24.7869 8.02562C24.5232 7.7619 24.375 7.40421 24.375 7.03125C24.375 6.65829 24.5232 6.3006 24.7869 6.03688C25.0506 5.77316 25.4083 5.625 25.7813 5.625H26.7188C28.53 5.625 30 7.095 30 8.90625V19.2187C30 20.089 29.6543 20.9236 29.0389 21.5389C28.4236 22.1543 27.589 22.5 26.7188 22.5H26.25V25.3931C26.2498 25.9333 26.0895 26.4613 25.7893 26.9104C25.4891 27.3595 25.0625 27.7095 24.5634 27.9161C24.0644 28.1228 23.5152 28.1769 22.9854 28.0716C22.4556 27.9663 21.9689 27.7062 21.5869 27.3244L17.2875 23.025C17.1493 22.8963 17.0385 22.741 16.9617 22.5685C16.8848 22.396 16.8435 22.2098 16.8401 22.021C16.8368 21.8322 16.8715 21.6446 16.9423 21.4695C17.013 21.2944 17.1183 21.1353 17.2518 21.0018C17.3853 20.8683 17.5444 20.763 17.7195 20.6923C17.8946 20.6215 18.0822 20.5868 18.271 20.5901C18.4598 20.5935 18.646 20.6348 18.8185 20.7117C18.991 20.7885 19.1463 20.8993 19.275 21.0375L23.4375 25.2V21.0937C23.4375 20.7208 23.5857 20.3631 23.8494 20.0994C24.1131 19.8357 24.4708 19.6875 24.8438 19.6875H26.7188C26.8431 19.6875 26.9623 19.6381 27.0502 19.5502C27.1381 19.4623 27.1875 19.3431 27.1875 19.2187V8.90625V8.90625Z" fill="white"/>
</g>
<defs>
<clipPath id="clip0_3_7">
<rect width="30" height="30" fill="white"/>
</clipPath>
</defs>
</svg>
